<svg width="79" height="142" viewBox="0 0 79 142" fill="none" xmlns="http://www.w3.org/2000/svg">
<path d="M39.5 0L43.6535 12.7832H57.0945L46.2205 20.6836L50.374 33.4668L39.5 25.5664L28.626 33.4668L32.7795 20.6836L21.9055 12.7832H35.3465L39.5 0Z" fill="#FFFF00"/>
<path d="M39.5 25L69.3779 76.75H9.62212L39.5 25Z" fill="#008000"/>
<path d="M39.5 65L78.0381 126.5H0.961868L39.5 65Z" fill="#008000"/>
<path d="M30,125 L48,125 L48,142 L30,142 Z
          M30,113.5 A8,7.5 0 1,0 14,113.5 A8,7.5 0 1,0 30,113.5 Z
          M50,101.5 A8,7.5 0 1,0 34,101.5 A8,7.5 0 1,0 50,101.5 Z
          M38,57.5 A8,7.5 0 1,0 22,57.5 A8,7.5 0 1,0 38,57.5 Z"
      fill="#A52A2A"/>
<path d="M30,113.5 A8,7.5 0 1,0 14,113.5 A8,7.5 0 1,0 30,113.5 Z" fill="#FFD700"/>
<path d="M50,101.5 A8,7.5 0 1,0 34,101.5 A8,7.5 0 1,0 50,101.5 Z" fill="#0000FF"/>
<path d="M38,57.5 A8,7.5 0 1,0 22,57.5 A8,7.5 0 1,0 38,57.5 Z" fill="#FFA500"/>
</svg>
